# xmcd
#
# Track frame offsets:
# 150
# 18745
# 41332
# 59624
# 99336
# 115789
# 136793
# 155816
# 176110
# 191956
# 214026
# 230535
# 247516
#
# Disc length: 3683 seconds
#
#
# Revision: 0
# Processed by: cddbd v1.5.2PL0 Copyright (c) Steve Scherf et al.
# Submitted via: FreeRIP 2.96 
#
DISCID=b00e610d
DTITLE=Nitzinger - Kiss Of The Mudman
DYEAR=2007
DGENRE=Blues
TTITLE0=Kiss Of The Mudman
TTITLE1=The Devil's Got The Blues
TTITLE2=You'd Bitch At A Cloud
TTITLE3=The Long Sleep
TTITLE4=Rock Your Block Off
TTITLE5=Calling
TTITLE6=Bad Day
TTITLE7=You Know Me
TTITLE8=Let The Living grow
TTITLE9=Sarah's letter
TTITLE10=Again, Again
TTITLE11=Revenge
TTITLE12=The Beast
EXTD=
EXTT0=
EXTT1=
EXTT2=
EXTT3=
EXTT4=
EXTT5=
EXTT6=
EXTT7=
EXTT8=
EXTT9=
EXTT10=
EXTT11=
EXTT12=
PLAYORDER=
